# xmcd
#
# Track frame offsets: 
#        150
#        16840
#        36023
#        61434
#        78543
#        96228
#        108357
#        126530
#        146175
#        163122
#        177597
#        196644
#        213758
#
# Disc length: 3091 seconds
#
# Revision: 0
# Processed by: cddbd v1.5.2PL0 Copyright (c) Steve Scherf et al.
# Submitted via: ExactAudioCopyFreeDBPlugin 1.0
#
DISCID=b60c110d
DTITLE=Carolina Gator Gumbo - Live At Petra's
DYEAR=2017
DGENRE=Country
TTITLE0=Chere Babe
TTITLE1=Good Deal Lucille
TTITLE2=Belizaire Waltz - Two Step
TTITLE3=Memphis, Tennessee
TTITLE4=Port Arthur Blues
TTITLE5=Cowboy's Sweetheart
TTITLE6=Quelle Etoile
TTITLE7=Mon Chere Babe Creole
TTITLE8=Boot Heel Drag
TTITLE9=Honky Tonk Boogie
TTITLE10=Tante Nana
TTITLE11=Monkey Business
TTITLE12=The Back Door
EXTD=
EXTT0=
EXTT1=
EXTT2=
EXTT3=
EXTT4=
EXTT5=
EXTT6=
EXTT7=
EXTT8=
EXTT9=
EXTT10=
EXTT11=
EXTT12=
PLAYORDER=
